<mxfile host="app.diagrams.net" modified="2024-01-23T09:39:30.207Z" agent="Mozilla/5.0 (Windows NT 10.0; Win64; x64) AppleWebKit/537.36 (KHTML, like Gecko) Chrome/120.0.0.0 Safari/537.36" etag="8t0sOce8S9t2jY-LL3o0" version="22.1.21" type="github">
  <diagram name="第 1 页" id="xE2Ja-iS0WYFZ7yjty6P">
    <mxGraphModel dx="1050" dy="569" grid="1" gridSize="10" guides="1" tooltips="1" connect="1" arrows="1" fold="1" page="1" pageScale="1" pageWidth="827" pageHeight="1169" math="0" shadow="0">
      <root>
        <mxCell id="0" />
        <mxCell id="1" parent="0" />
        <mxCell id="K4d6PtoiRJ0k-gmAlEHJ-6" value="" style="rounded=0;whiteSpace=wrap;html=1;align=left;movable=0;resizable=0;rotatable=0;deletable=0;editable=0;locked=1;connectable=0;" vertex="1" parent="1">
          <mxGeometry x="10" y="20" width="170" height="220" as="geometry" />
        </mxCell>
        <mxCell id="4fMxAsSN7tVmvYThoDPO-1" value="APP Account&lt;br&gt;" style="swimlane;fontStyle=1;align=center;verticalAlign=top;childLayout=stackLayout;horizontal=1;startSize=26;horizontalStack=0;resizeParent=1;resizeParentMax=0;resizeLast=0;collapsible=1;marginBottom=0;whiteSpace=wrap;html=1;movable=0;resizable=0;rotatable=0;deletable=0;editable=0;locked=1;connectable=0;" parent="1" vertex="1">
          <mxGeometry x="15" y="70" width="160" height="160" as="geometry" />
        </mxCell>
        <mxCell id="4fMxAsSN7tVmvYThoDPO-2" value="+ user_name: 账号&lt;br&gt;+ password: 密码&lt;br&gt;+ nick_name: 昵称&lt;br&gt;+&amp;nbsp;avatar: 头像&lt;br&gt;+ login_ip: 登录ip&lt;br&gt;+ login_time：登录时间&lt;br&gt;+ create_time：创建时间&lt;br&gt;+ update_time: 更新时间" style="text;strokeColor=none;fillColor=none;align=left;verticalAlign=top;spacingLeft=4;spacingRight=4;overflow=hidden;rotatable=0;points=[[0,0.5],[1,0.5]];portConstraint=eastwest;whiteSpace=wrap;html=1;movable=0;resizable=0;deletable=0;editable=0;locked=1;connectable=0;" parent="4fMxAsSN7tVmvYThoDPO-1" vertex="1">
          <mxGeometry y="26" width="160" height="134" as="geometry" />
        </mxCell>
        <mxCell id="K4d6PtoiRJ0k-gmAlEHJ-8" value="&lt;p style=&quot;font-size: 12px;&quot;&gt;APP端用户信息&lt;/p&gt;" style="text;strokeColor=none;fillColor=none;html=1;fontSize=12;fontStyle=0;verticalAlign=middle;align=center;movable=0;resizable=0;rotatable=0;deletable=0;editable=0;locked=1;connectable=0;" vertex="1" parent="1">
          <mxGeometry x="45" y="30" width="100" height="40" as="geometry" />
        </mxCell>
        <mxCell id="K4d6PtoiRJ0k-gmAlEHJ-30" value="" style="rounded=0;whiteSpace=wrap;html=1;movable=0;resizable=0;rotatable=0;deletable=0;editable=0;locked=1;connectable=0;" vertex="1" parent="1">
          <mxGeometry x="190" y="20" width="240" height="480" as="geometry" />
        </mxCell>
        <mxCell id="K4d6PtoiRJ0k-gmAlEHJ-18" value="&lt;b&gt;Product&lt;/b&gt;" style="swimlane;fontStyle=0;childLayout=stackLayout;horizontal=1;startSize=26;fillColor=none;horizontalStack=0;resizeParent=1;resizeParentMax=0;resizeLast=0;collapsible=1;marginBottom=0;whiteSpace=wrap;html=1;movable=0;resizable=0;rotatable=0;deletable=0;editable=0;locked=1;connectable=0;" vertex="1" parent="1">
          <mxGeometry x="195" y="70" width="225" height="416" as="geometry" />
        </mxCell>
        <mxCell id="K4d6PtoiRJ0k-gmAlEHJ-36" value="+ id: 主键 自增id" style="text;strokeColor=none;fillColor=none;align=left;verticalAlign=top;spacingLeft=4;spacingRight=4;overflow=hidden;rotatable=0;points=[[0,0.5],[1,0.5]];portConstraint=eastwest;whiteSpace=wrap;html=1;movable=0;resizable=0;deletable=0;editable=0;locked=1;connectable=0;" vertex="1" parent="K4d6PtoiRJ0k-gmAlEHJ-18">
          <mxGeometry y="26" width="225" height="26" as="geometry" />
        </mxCell>
        <mxCell id="K4d6PtoiRJ0k-gmAlEHJ-35" value="+ uniqueId: 商品的唯一ID" style="text;strokeColor=none;fillColor=none;align=left;verticalAlign=top;spacingLeft=4;spacingRight=4;overflow=hidden;rotatable=0;points=[[0,0.5],[1,0.5]];portConstraint=eastwest;whiteSpace=wrap;html=1;movable=0;resizable=0;deletable=0;editable=0;locked=1;connectable=0;" vertex="1" parent="K4d6PtoiRJ0k-gmAlEHJ-18">
          <mxGeometry y="52" width="225" height="26" as="geometry" />
        </mxCell>
        <mxCell id="K4d6PtoiRJ0k-gmAlEHJ-19" value="+ title: 商品标题" style="text;strokeColor=none;fillColor=none;align=left;verticalAlign=top;spacingLeft=4;spacingRight=4;overflow=hidden;rotatable=0;points=[[0,0.5],[1,0.5]];portConstraint=eastwest;whiteSpace=wrap;html=1;movable=0;resizable=0;deletable=0;editable=0;locked=1;connectable=0;" vertex="1" parent="K4d6PtoiRJ0k-gmAlEHJ-18">
          <mxGeometry y="78" width="225" height="26" as="geometry" />
        </mxCell>
        <mxCell id="K4d6PtoiRJ0k-gmAlEHJ-20" value="+ tags: 标签" style="text;strokeColor=none;fillColor=none;align=left;verticalAlign=top;spacingLeft=4;spacingRight=4;overflow=hidden;rotatable=0;points=[[0,0.5],[1,0.5]];portConstraint=eastwest;whiteSpace=wrap;html=1;movable=0;resizable=0;deletable=0;editable=0;locked=1;connectable=0;" vertex="1" parent="K4d6PtoiRJ0k-gmAlEHJ-18">
          <mxGeometry y="104" width="225" height="26" as="geometry" />
        </mxCell>
        <mxCell id="K4d6PtoiRJ0k-gmAlEHJ-21" value="+ generation_time: 生产日期" style="text;strokeColor=none;fillColor=none;align=left;verticalAlign=top;spacingLeft=4;spacingRight=4;overflow=hidden;rotatable=0;points=[[0,0.5],[1,0.5]];portConstraint=eastwest;whiteSpace=wrap;html=1;movable=0;resizable=0;deletable=0;editable=0;locked=1;connectable=0;" vertex="1" parent="K4d6PtoiRJ0k-gmAlEHJ-18">
          <mxGeometry y="130" width="225" height="26" as="geometry" />
        </mxCell>
        <mxCell id="K4d6PtoiRJ0k-gmAlEHJ-22" value="+ appearance: 外型" style="text;strokeColor=none;fillColor=none;align=left;verticalAlign=top;spacingLeft=4;spacingRight=4;overflow=hidden;rotatable=0;points=[[0,0.5],[1,0.5]];portConstraint=eastwest;whiteSpace=wrap;html=1;movable=0;resizable=0;deletable=0;editable=0;locked=1;connectable=0;" vertex="1" parent="K4d6PtoiRJ0k-gmAlEHJ-18">
          <mxGeometry y="156" width="225" height="26" as="geometry" />
        </mxCell>
        <mxCell id="K4d6PtoiRJ0k-gmAlEHJ-23" value="+ price: 价格" style="text;strokeColor=none;fillColor=none;align=left;verticalAlign=top;spacingLeft=4;spacingRight=4;overflow=hidden;rotatable=0;points=[[0,0.5],[1,0.5]];portConstraint=eastwest;whiteSpace=wrap;html=1;movable=0;resizable=0;deletable=0;editable=0;locked=1;connectable=0;" vertex="1" parent="K4d6PtoiRJ0k-gmAlEHJ-18">
          <mxGeometry y="182" width="225" height="26" as="geometry" />
        </mxCell>
        <mxCell id="K4d6PtoiRJ0k-gmAlEHJ-24" value="+ address: 发货地址" style="text;strokeColor=none;fillColor=none;align=left;verticalAlign=top;spacingLeft=4;spacingRight=4;overflow=hidden;rotatable=0;points=[[0,0.5],[1,0.5]];portConstraint=eastwest;whiteSpace=wrap;html=1;movable=0;resizable=0;deletable=0;editable=0;locked=1;connectable=0;" vertex="1" parent="K4d6PtoiRJ0k-gmAlEHJ-18">
          <mxGeometry y="208" width="225" height="26" as="geometry" />
        </mxCell>
        <mxCell id="K4d6PtoiRJ0k-gmAlEHJ-25" value="+ imges: 商品图片" style="text;strokeColor=none;fillColor=none;align=left;verticalAlign=top;spacingLeft=4;spacingRight=4;overflow=hidden;rotatable=0;points=[[0,0.5],[1,0.5]];portConstraint=eastwest;whiteSpace=wrap;html=1;movable=0;resizable=0;deletable=0;editable=0;locked=1;connectable=0;" vertex="1" parent="K4d6PtoiRJ0k-gmAlEHJ-18">
          <mxGeometry y="234" width="225" height="26" as="geometry" />
        </mxCell>
        <mxCell id="K4d6PtoiRJ0k-gmAlEHJ-26" value="+&amp;nbsp;summarize: 总结" style="text;strokeColor=none;fillColor=none;align=left;verticalAlign=top;spacingLeft=4;spacingRight=4;overflow=hidden;rotatable=0;points=[[0,0.5],[1,0.5]];portConstraint=eastwest;whiteSpace=wrap;html=1;movable=0;resizable=0;deletable=0;editable=0;locked=1;connectable=0;" vertex="1" parent="K4d6PtoiRJ0k-gmAlEHJ-18">
          <mxGeometry y="260" width="225" height="26" as="geometry" />
        </mxCell>
        <mxCell id="K4d6PtoiRJ0k-gmAlEHJ-27" value="+&amp;nbsp;score: 评分" style="text;strokeColor=none;fillColor=none;align=left;verticalAlign=top;spacingLeft=4;spacingRight=4;overflow=hidden;rotatable=0;points=[[0,0.5],[1,0.5]];portConstraint=eastwest;whiteSpace=wrap;html=1;movable=0;resizable=0;deletable=0;editable=0;locked=1;connectable=0;" vertex="1" parent="K4d6PtoiRJ0k-gmAlEHJ-18">
          <mxGeometry y="286" width="225" height="26" as="geometry" />
        </mxCell>
        <mxCell id="K4d6PtoiRJ0k-gmAlEHJ-28" value="+&amp;nbsp;desc: 描述" style="text;strokeColor=none;fillColor=none;align=left;verticalAlign=top;spacingLeft=4;spacingRight=4;overflow=hidden;rotatable=0;points=[[0,0.5],[1,0.5]];portConstraint=eastwest;whiteSpace=wrap;html=1;movable=0;resizable=0;deletable=0;editable=0;locked=1;connectable=0;" vertex="1" parent="K4d6PtoiRJ0k-gmAlEHJ-18">
          <mxGeometry y="312" width="225" height="26" as="geometry" />
        </mxCell>
        <mxCell id="K4d6PtoiRJ0k-gmAlEHJ-34" value="+&amp;nbsp;contact: 客服联系方式" style="text;strokeColor=none;fillColor=none;align=left;verticalAlign=top;spacingLeft=4;spacingRight=4;overflow=hidden;rotatable=0;points=[[0,0.5],[1,0.5]];portConstraint=eastwest;whiteSpace=wrap;html=1;movable=0;resizable=0;deletable=0;editable=0;locked=1;connectable=0;" vertex="1" parent="K4d6PtoiRJ0k-gmAlEHJ-18">
          <mxGeometry y="338" width="225" height="26" as="geometry" />
        </mxCell>
        <mxCell id="K4d6PtoiRJ0k-gmAlEHJ-29" value="+ status: 记录状态(0失效， 1生效)" style="text;strokeColor=none;fillColor=none;align=left;verticalAlign=top;spacingLeft=4;spacingRight=4;overflow=hidden;rotatable=0;points=[[0,0.5],[1,0.5]];portConstraint=eastwest;whiteSpace=wrap;html=1;movable=0;resizable=0;deletable=0;editable=0;locked=1;connectable=0;" vertex="1" parent="K4d6PtoiRJ0k-gmAlEHJ-18">
          <mxGeometry y="364" width="225" height="26" as="geometry" />
        </mxCell>
        <mxCell id="K4d6PtoiRJ0k-gmAlEHJ-37" value="+ del_flag: 商品状态 (0下架，1上架)" style="text;strokeColor=none;fillColor=none;align=left;verticalAlign=top;spacingLeft=4;spacingRight=4;overflow=hidden;rotatable=0;points=[[0,0.5],[1,0.5]];portConstraint=eastwest;whiteSpace=wrap;html=1;movable=0;resizable=0;deletable=0;editable=0;locked=1;connectable=0;" vertex="1" parent="K4d6PtoiRJ0k-gmAlEHJ-18">
          <mxGeometry y="390" width="225" height="26" as="geometry" />
        </mxCell>
        <mxCell id="K4d6PtoiRJ0k-gmAlEHJ-31" value="商品详情" style="text;strokeColor=none;fillColor=none;html=1;fontSize=12;fontStyle=0;verticalAlign=middle;align=center;movable=0;resizable=0;rotatable=0;deletable=0;editable=0;locked=1;connectable=0;" vertex="1" parent="1">
          <mxGeometry x="240" y="20" width="100" height="40" as="geometry" />
        </mxCell>
        <mxCell id="K4d6PtoiRJ0k-gmAlEHJ-40" value="" style="rounded=0;whiteSpace=wrap;html=1;" vertex="1" parent="1">
          <mxGeometry x="440" y="20" width="360" height="60" as="geometry" />
        </mxCell>
        <mxCell id="K4d6PtoiRJ0k-gmAlEHJ-44" style="edgeStyle=orthogonalEdgeStyle;rounded=0;orthogonalLoop=1;jettySize=auto;html=1;exitX=1;exitY=0.5;exitDx=0;exitDy=0;" edge="1" parent="1" source="K4d6PtoiRJ0k-gmAlEHJ-41" target="K4d6PtoiRJ0k-gmAlEHJ-42">
          <mxGeometry relative="1" as="geometry" />
        </mxCell>
        <mxCell id="K4d6PtoiRJ0k-gmAlEHJ-41" value="特权字典" style="rounded=1;whiteSpace=wrap;html=1;" vertex="1" parent="1">
          <mxGeometry x="130" y="760" width="120" height="60" as="geometry" />
        </mxCell>
        <mxCell id="K4d6PtoiRJ0k-gmAlEHJ-50" style="edgeStyle=orthogonalEdgeStyle;rounded=0;orthogonalLoop=1;jettySize=auto;html=1;entryX=0;entryY=0.5;entryDx=0;entryDy=0;" edge="1" parent="1" source="K4d6PtoiRJ0k-gmAlEHJ-42" target="K4d6PtoiRJ0k-gmAlEHJ-49">
          <mxGeometry relative="1" as="geometry" />
        </mxCell>
        <mxCell id="K4d6PtoiRJ0k-gmAlEHJ-51" value="关联到账号" style="edgeLabel;html=1;align=center;verticalAlign=middle;resizable=0;points=[];" vertex="1" connectable="0" parent="K4d6PtoiRJ0k-gmAlEHJ-50">
          <mxGeometry x="-0.48" y="1" relative="1" as="geometry">
            <mxPoint x="17" y="1" as="offset" />
          </mxGeometry>
        </mxCell>
        <mxCell id="K4d6PtoiRJ0k-gmAlEHJ-42" value="将特权和会员合并" style="rounded=0;whiteSpace=wrap;html=1;" vertex="1" parent="1">
          <mxGeometry x="410" y="800" width="120" height="60" as="geometry" />
        </mxCell>
        <mxCell id="K4d6PtoiRJ0k-gmAlEHJ-45" style="edgeStyle=orthogonalEdgeStyle;rounded=0;orthogonalLoop=1;jettySize=auto;html=1;entryX=0;entryY=0.5;entryDx=0;entryDy=0;" edge="1" parent="1" source="K4d6PtoiRJ0k-gmAlEHJ-43" target="K4d6PtoiRJ0k-gmAlEHJ-42">
          <mxGeometry relative="1" as="geometry" />
        </mxCell>
        <mxCell id="K4d6PtoiRJ0k-gmAlEHJ-43" value="会员等级" style="rounded=1;whiteSpace=wrap;html=1;" vertex="1" parent="1">
          <mxGeometry x="130" y="850" width="120" height="60" as="geometry" />
        </mxCell>
        <mxCell id="K4d6PtoiRJ0k-gmAlEHJ-55" style="edgeStyle=orthogonalEdgeStyle;rounded=0;orthogonalLoop=1;jettySize=auto;html=1;" edge="1" parent="1" source="K4d6PtoiRJ0k-gmAlEHJ-47" target="K4d6PtoiRJ0k-gmAlEHJ-52">
          <mxGeometry relative="1" as="geometry" />
        </mxCell>
        <mxCell id="K4d6PtoiRJ0k-gmAlEHJ-47" value="后端：将特权与具体的业务数据进行关联" style="ellipse;whiteSpace=wrap;html=1;" vertex="1" parent="1">
          <mxGeometry x="360" y="610" width="120" height="80" as="geometry" />
        </mxCell>
        <mxCell id="K4d6PtoiRJ0k-gmAlEHJ-48" style="edgeStyle=orthogonalEdgeStyle;rounded=0;orthogonalLoop=1;jettySize=auto;html=1;entryX=0.443;entryY=-0.007;entryDx=0;entryDy=0;entryPerimeter=0;exitX=0.5;exitY=0;exitDx=0;exitDy=0;" edge="1" parent="1" source="K4d6PtoiRJ0k-gmAlEHJ-41" target="K4d6PtoiRJ0k-gmAlEHJ-47">
          <mxGeometry relative="1" as="geometry" />
        </mxCell>
        <mxCell id="K4d6PtoiRJ0k-gmAlEHJ-53" style="edgeStyle=orthogonalEdgeStyle;rounded=0;orthogonalLoop=1;jettySize=auto;html=1;" edge="1" parent="1" source="K4d6PtoiRJ0k-gmAlEHJ-49" target="K4d6PtoiRJ0k-gmAlEHJ-52">
          <mxGeometry relative="1" as="geometry" />
        </mxCell>
        <mxCell id="K4d6PtoiRJ0k-gmAlEHJ-54" value="调用相关接口" style="edgeLabel;html=1;align=center;verticalAlign=middle;resizable=0;points=[];" vertex="1" connectable="0" parent="K4d6PtoiRJ0k-gmAlEHJ-53">
          <mxGeometry x="0.3867" y="-1" relative="1" as="geometry">
            <mxPoint as="offset" />
          </mxGeometry>
        </mxCell>
        <mxCell id="K4d6PtoiRJ0k-gmAlEHJ-49" value="账号" style="whiteSpace=wrap;html=1;aspect=fixed;" vertex="1" parent="1">
          <mxGeometry x="620" y="790" width="80" height="80" as="geometry" />
        </mxCell>
        <mxCell id="K4d6PtoiRJ0k-gmAlEHJ-56" style="edgeStyle=orthogonalEdgeStyle;rounded=0;orthogonalLoop=1;jettySize=auto;html=1;entryX=1;entryY=0.5;entryDx=0;entryDy=0;exitX=1;exitY=0.5;exitDx=0;exitDy=0;" edge="1" parent="1" source="K4d6PtoiRJ0k-gmAlEHJ-52" target="K4d6PtoiRJ0k-gmAlEHJ-49">
          <mxGeometry relative="1" as="geometry" />
        </mxCell>
        <mxCell id="K4d6PtoiRJ0k-gmAlEHJ-57" value="操作完成" style="edgeLabel;html=1;align=center;verticalAlign=middle;resizable=0;points=[];" vertex="1" connectable="0" parent="K4d6PtoiRJ0k-gmAlEHJ-56">
          <mxGeometry x="0.265" relative="1" as="geometry">
            <mxPoint as="offset" />
          </mxGeometry>
        </mxCell>
        <mxCell id="K4d6PtoiRJ0k-gmAlEHJ-52" value="返回具体特权" style="rhombus;whiteSpace=wrap;html=1;" vertex="1" parent="1">
          <mxGeometry x="600" y="610" width="80" height="80" as="geometry" />
        </mxCell>
      </root>
    </mxGraphModel>
  </diagram>
</mxfile>
